<svg xmlns="http://www.w3.org/2000/svg" width="120.035" height="33.253" viewBox="0 0 120.035 33.253">
    <defs>
        <style>
            .cls-1{fill:#fff}
        </style>
    </defs>
    <g id="logo" transform="translate(-2431.886 462.938)">
        <g id="그룹_2797" transform="translate(2444.618 -455.85)">
            <path id="패스_649" d="M2457.158-434.728a9.489 9.489 0 0 1-9.477-9.478v-8.184a1.755 1.755 0 0 1 1.756-1.755 1.755 1.755 0 0 1 1.755 1.755v8.184a5.974 5.974 0 0 0 5.967 5.967 5.974 5.974 0 0 0 5.968-5.967v-8.184a1.754 1.754 0 0 1 1.755-1.755 1.755 1.755 0 0 1 1.756 1.755v8.184a9.489 9.489 0 0 1-9.48 9.478z" class="cls-1" transform="translate(-2447.681 454.145)"/>
        </g>
        <g id="그룹_2798" transform="translate(2532.966 -455.85)">
            <path id="패스_650" d="M2566.762-439.728a9.489 9.489 0 0 1-9.478-9.478v-3.185a1.755 1.755 0 0 1 1.756-1.755 1.754 1.754 0 0 1 1.755 1.755v3.185a5.974 5.974 0 0 0 5.968 5.967 5.974 5.974 0 0 0 5.967-5.967v-3.185a1.755 1.755 0 0 1 1.755-1.755 1.755 1.755 0 0 1 1.756 1.755v3.185a9.489 9.489 0 0 1-9.479 9.478z" class="cls-1" transform="translate(-2557.284 454.145)"/>
        </g>
        <g id="그룹_2799" transform="translate(2431.886 -462.017)">
            <path id="패스_651" d="M2441.363-436.212a9.488 9.488 0 0 1-9.477-9.478v-14.35a1.755 1.755 0 0 1 1.756-1.756 1.755 1.755 0 0 1 1.755 1.756v14.351a5.974 5.974 0 0 0 5.967 5.967 1.755 1.755 0 0 1 1.756 1.755 1.755 1.755 0 0 1-1.757 1.755z" class="cls-1" transform="translate(-2431.886 461.796)"/>
        </g>
        <g id="그룹_2800" transform="translate(2511.974 -455.85)">
            <path id="패스_652" d="M2540.95-434.728a9.719 9.719 0 0 1-9.708-9.708 9.719 9.719 0 0 1 9.708-9.708 9.719 9.719 0 0 1 9.708 9.708 9.719 9.719 0 0 1-9.708 9.708zm0-15.906a6.2 6.2 0 0 0-6.2 6.2 6.205 6.205 0 0 0 6.2 6.2 6.205 6.205 0 0 0 6.2-6.2 6.2 6.2 0 0 0-6.2-6.201z" class="cls-1" transform="translate(-2531.242 454.145)"/>
        </g>
        <g id="그룹_2801" transform="translate(2500.782 -455.861)">
            <path id="패스_653" d="M2519.114-434.7a1.756 1.756 0 0 1-1.756-1.756v-7.621a10.1 10.1 0 0 1 10.086-10.086 1.756 1.756 0 0 1 1.756 1.756 1.756 1.756 0 0 1-1.756 1.755 6.584 6.584 0 0 0-6.576 6.576v7.621a1.755 1.755 0 0 1-1.754 1.755z" class="cls-1" transform="translate(-2517.358 454.158)"/>
        </g>
        <g id="그룹_2802" transform="translate(2465.598 -455.774)">
            <path id="패스_654" d="M2475.464-434.675a1.755 1.755 0 0 1-1.755-1.756v-10.456a7.173 7.173 0 0 1 7.165-7.165 7.173 7.173 0 0 1 7.165 7.165 1.755 1.755 0 0 1-1.755 1.756 1.755 1.755 0 0 1-1.755-1.756 3.659 3.659 0 0 0-3.655-3.655 3.659 3.659 0 0 0-3.655 3.655v10.456a1.755 1.755 0 0 1-1.755 1.756z" class="cls-1" transform="translate(-2473.709 454.051)"/>
        </g>
        <g id="그룹_2803" transform="translate(2476.347 -455.774)">
            <path id="패스_655" d="M2499.62-434.675a1.755 1.755 0 0 1-1.755-1.756v-10.456a3.659 3.659 0 0 0-3.655-3.655 3.659 3.659 0 0 0-3.655 3.655v10.456a1.755 1.755 0 0 1-1.756 1.756 1.755 1.755 0 0 1-1.756-1.756v-10.456a7.173 7.173 0 0 1 7.166-7.165 7.173 7.173 0 0 1 7.165 7.165v10.456a1.756 1.756 0 0 1-1.754 1.756z" class="cls-1" transform="translate(-2487.044 454.051)"/>
        </g>
        <g id="그룹_2804" transform="translate(2493.883 -455.85)">
            <path id="패스_656" d="M2510.553-434.693a1.755 1.755 0 0 1-1.755-1.756v-15.941a1.755 1.755 0 0 1 1.755-1.755 1.755 1.755 0 0 1 1.756 1.755v15.942a1.756 1.756 0 0 1-1.756 1.755z" class="cls-1" transform="translate(-2508.798 454.145)"/>
        </g>
        <g id="그룹_2805" transform="translate(2540.688 -444.943)">
            <path id="패스_657" d="M2568.62-425.356a1.755 1.755 0 0 1-1.756-1.756v-11.748a1.755 1.755 0 0 1 1.756-1.755 1.755 1.755 0 0 1 1.755 1.755v11.748a1.755 1.755 0 0 1-1.755 1.756z" class="cls-1" transform="translate(-2566.864 440.614)"/>
        </g>
        <g id="그룹_2806" transform="translate(2527.88 -448.632)">
            <path id="패스_658" d="M2552.731-432.652a1.755 1.755 0 0 1-1.756-1.755v-9.03a1.755 1.755 0 0 1 1.756-1.755 1.755 1.755 0 0 1 1.755 1.755v9.03a1.755 1.755 0 0 1-1.755 1.755z" class="cls-1" transform="translate(-2550.975 445.191)"/>
        </g>
        <g id="그룹_2807" transform="translate(2492.751 -462.937)">
            <path id="패스_659" d="M2510.3-462.937l.828.908 1.228-.057-.056 1.228.908.828-.908.828.056 1.228-1.228-.057-.828.908-.828-.908-1.228.057.056-1.228-.908-.828.908-.828-.056-1.228 1.228.057z" class="cls-1" transform="translate(-2507.395 462.937)"/>
        </g>
    </g>
</svg>
