<svg id="image" xmlns="http://www.w3.org/2000/svg" width="77.63" height="219.306">
    <defs>
        <style>
            .cls-1{fill:#627b55}
        </style>
    </defs>
    <g id="그룹_5107" data-name="그룹 5107">
        <g id="그룹_5101" data-name="그룹 5101">
            <path id="패스_6377" data-name="패스 6377" class="cls-1" d="M842.1 241.783h-35.926a20.855 20.855 0 0 1 0-41.71H842.1a20.855 20.855 0 0 1 0 41.71zm-35.925-36.71a15.855 15.855 0 0 0 0 31.709H842.1a15.855 15.855 0 0 0 0-31.709z" transform="translate(-785.323 -200.073)"/>
        </g>
        <g id="그룹_5102" data-name="그룹 5102" transform="translate(17.389 18.354)">
            <path id="패스_6378" data-name="패스 6378" class="cls-1" d="M832.63 212.414h-37.852a2.5 2.5 0 0 1 0-5h37.852a2.5 2.5 0 0 1 0 5z" transform="translate(-792.278 -207.414)"/>
        </g>
        <g id="그룹_5103" data-name="그룹 5103" transform="translate(15.441 60.564)">
            <path id="패스_6379" data-name="패스 6379" class="cls-1" d="M835.744 261.714a2.5 2.5 0 0 1-2.5-2.5v-20.9c0-4.885-3.075-9.013-6.713-9.013h-23.319c-3.638 0-6.713 4.128-6.713 9.013v20.9a2.5 2.5 0 1 1-5 0v-20.9c0-7.725 5.255-14.013 11.713-14.013h23.319c6.458 0 11.713 6.288 11.713 14.013v20.9a2.5 2.5 0 0 1-2.5 2.5z" transform="translate(-791.499 -224.297)"/>
        </g>
        <g id="그룹_5104" data-name="그룹 5104" transform="translate(8.198 93.41)">
            <path id="패스_6380" data-name="패스 6380" class="cls-1" d="M847.335 315.064H791.1a2.5 2.5 0 0 1-2.5-2.5v-72.629a2.5 2.5 0 0 1 2.5-2.5h56.233a2.5 2.5 0 0 1 2.5 2.5v72.629a2.5 2.5 0 0 1-2.498 2.5zm-53.733-5h51.233v-67.629H793.6z" transform="translate(-788.602 -237.435)"/>
        </g>
        <g id="그룹_5105" data-name="그룹 5105" transform="translate(23.871 166.897)">
            <path id="패스_6381" data-name="패스 6381" class="cls-1" d="M822.258 288.359h-24.887a2.5 2.5 0 0 1-2.5-2.5v-16.531a2.5 2.5 0 1 1 5 0v14.031h19.886v-14.031a2.5 2.5 0 0 1 5 0v16.531a2.5 2.5 0 0 1-2.499 2.5z" transform="translate(-794.871 -266.828)"/>
        </g>
        <g id="그룹_5106" data-name="그룹 5106" transform="translate(28.747 183.358)">
            <path id="패스_6382" data-name="패스 6382" class="cls-1" d="M814.455 309.359a2.5 2.5 0 0 1-2.5-2.5v-28.447h-10.134v28.447a2.5 2.5 0 1 1-5 0v-30.947a2.5 2.5 0 0 1 2.5-2.5h15.134a2.5 2.5 0 0 1 2.5 2.5v30.947a2.5 2.5 0 0 1-2.5 2.5z" transform="translate(-796.821 -273.412)"/>
        </g>
    </g>
    <g id="그룹_5108" data-name="그룹 5108" transform="translate(15.441 72.077)">
        <path id="패스_6383" data-name="패스 6383" class="cls-1" d="M835.744 233.9H794a2.5 2.5 0 0 1 0-5h41.745a2.5 2.5 0 0 1 0 5z" transform="translate(-791.499 -228.902)"/>
    </g>
</svg>
